<?xml version="1.0" encoding="utf-8"?>
<!-- Generator: Adobe Illustrator 17.0.0, SVG Export Plug-In . SVG Version: 6.00 Build 0)  -->
<!DOCTYPE svg PUBLIC "-//W3C//DTD SVG 1.1//EN" "http://www.w3.org/Graphics/SVG/1.1/DTD/svg11.dtd">
<svg version="1.1" id="Layer_1" xmlns="http://www.w3.org/2000/svg" xmlns:xlink="http://www.w3.org/1999/xlink" x="0px" y="0px"
	 width="133.184px" height="152.461px" viewBox="0 0 133.184 152.461" enable-background="new 0 0 133.184 152.461"
	 xml:space="preserve">
<path fill="#2F0D9D" d="M81.732,75.525c5.514,0,10-4.486,10-10c0-5.514-4.486-10-10-10c-3.973,0-7.403,2.335-9.014,5.7H1.5v9H72.91
	C74.595,73.375,77.916,75.525,81.732,75.525z"/>
<rect x="-219.944" y="-196.53" fill="none" stroke="#000000" stroke-miterlimit="10" width="604.8" height="590.4"/>
<g>
	<g>
		<g>
			<g>
				<g>
					<path fill="#FFAC40" d="M1.499,90.824h56.16l29.073,14.69c0,0.003-0.001,0.007-0.001,0.011c0,5.514,4.486,10,10,10
						c5.514,0,10-4.486,10-10c0-5.514-4.486-10-10-10c-2.219,0-4.265,0.735-5.926,1.963l-30.044-15.18
						c-0.63-0.318-1.325-0.484-2.03-0.484H1.499V90.824z"/>
				</g>
			</g>
		</g>
	</g>
	<path fill="#EA2A40" d="M63.732,110.525c-2.05,0-3.958,0.622-5.546,1.685L41.95,103.01c-0.677-0.384-1.441-0.585-2.219-0.585
		H19.008v9h19.537l15.211,8.619c-0.008,0.16-0.024,0.318-0.024,0.48c0,5.514,4.486,10,10,10s10-4.486,10-10
		C73.732,115.011,69.246,110.525,63.732,110.525z"/>
	<path fill="#4CBD5E" d="M19.008,40.624v9h24.723c1.042,0,2.051-0.361,2.856-1.022l12.104-9.938
		c1.237,0.549,2.602,0.861,4.041,0.861c5.514,0,10-4.486,10-10c0-5.514-4.486-10-10-10s-10,4.486-10,10
		c0,0.751,0.09,1.48,0.248,2.185l-10.858,8.915H19.008z"/>
	<path fill="#2E313A" d="M124.288,78.842c-2.071-2.965-4.561-5.483-6.97-7.917c-0.136-0.138-0.272-0.276-0.406-0.411
		c10.93-14.053,12.814-29.689,5.422-45.398C114.599,8.681,100.408,0,81.285,0h-0.254C63.376,0.071,44.859,0.054,26.953,0.038
		C19.395,0.031,11.887,0.024,4.5,0.024c-1.194,0-2.338,0.474-3.183,1.319C0.474,2.187,0,3.331,0,4.524v40.6
		c0,2.485,2.014,4.5,4.5,4.5H9v-9v-6.999v-24.6c5.925,0.002,11.919,0.008,17.945,0.013C44.864,9.055,63.391,9.07,81.067,9h0.219
		c15.603,0,26.674,6.711,32.904,19.948c6.273,13.329,4.241,26.135-6.043,38.066c-0.356,0.414-0.619,0.804-0.793,1.062l-0.067,0.1
		c-1.246,1.734-1.101,4.105,0.346,5.675c1.087,1.179,2.205,2.31,3.286,3.403c2.243,2.267,4.36,4.407,5.992,6.742
		c8.4,12.026,9.535,24.723,3.376,37.74c-6.391,13.505-17.011,20.859-30.712,21.266c-20.356,0.604-39.151,0.483-59.053,0.354
		c-6.981-0.045-14.16-0.092-21.522-0.106v-40.826H4.5c-2.486,0-4.5,2.015-4.5,4.5v40.821c0,1.194,0.474,2.338,1.317,3.182
		c0.845,0.845,1.989,1.318,3.183,1.318c8.915,0,17.582,0.056,25.964,0.111c8.242,0.052,16.292,0.104,24.35,0.104
		c11.48,0,22.972-0.105,35.028-0.463c17.059-0.507,30.76-9.887,38.58-26.412C135.957,109.663,134.527,93.5,124.288,78.842z"/>
</g>
</svg>
