<?xml version="1.0" encoding="utf-8"?>
<!-- Generator: Adobe Illustrator 17.0.0, SVG Export Plug-In . SVG Version: 6.00 Build 0)  -->
<!DOCTYPE svg PUBLIC "-//W3C//DTD SVG 1.1//EN" "http://www.w3.org/Graphics/SVG/1.1/DTD/svg11.dtd">
<svg version="1.1" id="Layer_1" xmlns="http://www.w3.org/2000/svg" xmlns:xlink="http://www.w3.org/1999/xlink" x="0px" y="0px"
	 width="437.876px" height="155.512px" viewBox="0 0 437.876 155.512" enable-background="new 0 0 437.876 155.512"
	 xml:space="preserve">
<g>
	<g>
		<path fill="#FFFFFF" d="M163.25,49.237V11.585h17.508c7.411,0,11.872,3.575,11.872,9.394c0,4.227-3.183,7.593-7.358,8.166v0.209
			c5.088,0.235,9.106,4.019,9.106,9.028c0,6.602-5.088,10.854-13.151,10.854L163.25,49.237L163.25,49.237z M172.826,26.928h4.932
			c3.47,0,5.558-1.645,5.558-4.357c0-2.636-1.878-4.201-5.088-4.201h-5.401v8.558H172.826z M178.515,42.453
			c3.94,0,6.131-1.722,6.131-4.905c0-3.079-2.244-4.801-6.184-4.801h-5.636v9.706C172.826,42.453,178.515,42.453,178.515,42.453z"/>
		<path fill="#FFFFFF" d="M197.955,11.585h9.263v37.651h-9.263V11.585z"/>
		<path fill="#FFFFFF" d="M210.949,35.016c0-9.289,5.714-14.873,14.533-14.873c8.871,0,14.533,5.559,14.533,14.873
			c0,9.498-5.584,14.898-14.533,14.898C216.532,49.914,210.949,44.488,210.949,35.016z M230.648,35.042
			c0-5.114-2.009-8.114-5.166-8.114c-3.131,0-5.141,3-5.141,8.114c0,5.192,1.957,8.089,5.141,8.089
			C228.639,43.131,230.648,40.235,230.648,35.042z"/>
		<path fill="#FFFFFF" d="M262.039,32.041c-0.312-2.948-2.087-4.854-4.774-4.854c-3.262,0-5.167,2.818-5.167,7.828
			c0,5.062,1.905,7.881,5.167,7.881c2.713,0,4.462-1.749,4.801-4.697h8.48c-0.235,7.228-5.375,11.715-13.386,11.715
			c-8.897,0-14.43-5.583-14.43-14.898c0-9.211,5.532-14.873,14.377-14.873c8.011,0,13.203,4.775,13.438,11.898H262.039z"/>
		<path fill="#FFFFFF" d="M291.68,20.823h10.307l-10.098,12.158l10.697,16.256H291.94l-6.914-10.725l-1.67,2.01v8.715h-9.264V11.585
			h9.264v20.039h0.156L291.68,20.823z"/>
		<path fill="#FFFFFF" d="M321.318,32.041c-0.312-2.948-2.087-4.854-4.774-4.854c-3.262,0-5.167,2.818-5.167,7.828
			c0,5.062,1.905,7.881,5.167,7.881c2.713,0,4.462-1.749,4.801-4.697h8.48c-0.235,7.228-5.375,11.715-13.386,11.715
			c-8.897,0-14.43-5.583-14.43-14.898c0-9.211,5.532-14.873,14.377-14.873c8.011,0,13.203,4.775,13.438,11.898H321.318z"/>
		<path fill="#FFFFFF" d="M333.374,11.585h9.055V26.17h0.183c1.461-3.809,4.566-5.896,8.897-5.896c6.341,0,9.863,4.019,9.863,10.725
			v18.238h-9.237v-16.23c0-3.21-1.592-5.192-4.645-5.192c-3.104,0-4.853,2.218-4.853,5.4v16.021h-9.264L333.374,11.585
			L333.374,11.585z"/>
		<path fill="#FFFFFF" d="M364.634,41.018c0-5.323,4.096-8.298,11.454-8.741l6.653-0.392v-1.617c0-2.271-1.617-3.523-4.044-3.523
			c-2.505,0-4.097,1.305-4.357,3.053h-8.323c0.261-5.818,5.218-9.654,13.15-9.654c7.593,0,12.629,3.889,12.629,9.603v19.491h-9.002
			v-4.045h-0.183c-1.54,2.871-5.01,4.463-8.428,4.463C368.913,49.655,364.634,46.158,364.634,41.018z M382.742,39.035v-1.957
			l-5.166,0.339c-2.427,0.184-3.783,1.305-3.783,2.975c0,1.801,1.487,2.896,3.679,2.896
			C380.29,43.288,382.742,41.565,382.742,39.035z"/>
		<path fill="#FFFFFF" d="M396.155,13.986c0-2.558,2.061-4.515,4.748-4.515s4.724,1.957,4.724,4.515s-2.036,4.54-4.724,4.54
			S396.155,16.543,396.155,13.986z M396.285,20.823h9.237v28.414h-9.237V20.823z"/>
		<path fill="#FFFFFF" d="M410.036,20.823h9.002v5.348h0.183c1.461-3.783,4.436-5.896,8.793-5.896c6.341,0,9.863,3.967,9.863,10.725
			v18.238h-9.236V32.981c0-3.235-1.54-5.166-4.566-5.166c-2.948,0-4.775,2.218-4.775,5.349v16.073h-9.263V20.823H410.036z"/>
	</g>
	<g>
		<path fill="#FFFFFF" d="M163.25,97.143V59.492h9.576v37.651C172.826,97.143,163.25,97.143,163.25,97.143z"/>
		<path fill="#FFFFFF" d="M177.889,68.728h9.002v5.35h0.183c1.461-3.784,4.436-5.897,8.793-5.897c6.34,0,9.863,3.966,9.863,10.725
			v18.238h-9.237V80.887c0-3.235-1.54-5.166-4.566-5.166c-2.949,0-4.775,2.218-4.775,5.349v16.073h-9.263L177.889,68.728
			L177.889,68.728z"/>
		<path fill="#FFFFFF" d="M210.061,68.728h9.002v5.35h0.183c1.462-3.784,4.437-5.897,8.794-5.897c6.34,0,9.862,3.966,9.862,10.725
			v18.238h-9.236V80.887c0-3.235-1.54-5.166-4.566-5.166c-2.948,0-4.775,2.218-4.775,5.349v16.073h-9.263V68.728H210.061z"/>
		<path fill="#FFFFFF" d="M241.373,82.922c0-9.289,5.715-14.872,14.534-14.872c8.871,0,14.533,5.558,14.533,14.872
			c0,9.498-5.584,14.899-14.533,14.899C246.957,97.822,241.373,92.394,241.373,82.922z M261.073,82.949
			c0-5.114-2.009-8.115-5.166-8.115c-3.132,0-5.141,3.001-5.141,8.115c0,5.192,1.957,8.089,5.141,8.089
			C259.064,91.038,261.073,88.141,261.073,82.949z"/>
		<path fill="#FFFFFF" d="M291.38,97.143h-10.672l-9.523-28.415h9.941l4.957,20.666h0.183l4.854-20.666h9.681L291.38,97.143z"/>
		<path fill="#FFFFFF" d="M301.176,88.924c0-5.323,4.096-8.298,11.454-8.741l6.653-0.392v-1.618c0-2.27-1.617-3.522-4.044-3.522
			c-2.505,0-4.097,1.305-4.357,3.054h-8.323c0.261-5.819,5.218-9.654,13.15-9.654c7.593,0,12.629,3.888,12.629,9.602v19.491h-9.002
			V93.1h-0.183c-1.54,2.87-5.01,4.461-8.428,4.461C305.456,97.56,301.176,94.064,301.176,88.924z M319.284,86.941v-1.957
			l-5.166,0.339c-2.427,0.183-3.783,1.305-3.783,2.975c0,1.801,1.487,2.896,3.679,2.896
			C316.832,91.194,319.284,89.472,319.284,86.941z"/>
		<path fill="#FFFFFF" d="M344.333,62.362v6.366h5.114v6.811h-5.114v11.924c0,1.957,1.044,2.949,3.262,2.949
			c0.73,0,1.278-0.026,1.826-0.131v6.575c-0.887,0.183-2.243,0.339-4.044,0.339c-7.384,0-10.307-2.27-10.307-7.854V75.539h-3.861
			v-6.811h3.861v-6.366C335.07,62.362,344.333,62.362,344.333,62.362z"/>
		<path fill="#FFFFFF" d="M353.207,61.892c0-2.558,2.061-4.515,4.748-4.515c2.688,0,4.724,1.957,4.724,4.515s-2.035,4.54-4.724,4.54
			C355.267,66.432,353.207,64.45,353.207,61.892z M353.336,68.728h9.237v28.415h-9.237V68.728z"/>
		<path fill="#FFFFFF" d="M366.226,82.922c0-9.289,5.715-14.872,14.534-14.872c8.871,0,14.533,5.558,14.533,14.872
			c0,9.498-5.584,14.899-14.533,14.899C371.81,97.822,366.226,92.394,366.226,82.922z M385.926,82.949
			c0-5.114-2.009-8.115-5.166-8.115c-3.132,0-5.141,3.001-5.141,8.115c0,5.192,1.957,8.089,5.141,8.089
			C383.917,91.038,385.926,88.141,385.926,82.949z"/>
		<path fill="#FFFFFF" d="M398.87,68.728h9.002v5.35h0.183c1.461-3.784,4.436-5.897,8.793-5.897c6.341,0,9.863,3.966,9.863,10.725
			v18.238h-9.236V80.887c0-3.235-1.54-5.166-4.566-5.166c-2.948,0-4.775,2.218-4.775,5.349v16.073h-9.263V68.728H398.87z"/>
	</g>
	<g>
		<path fill="#FFFFFF" d="M171.156,134.143c0.339,2.583,3.235,4.305,6.784,4.305c3.731,0,6.158-1.67,6.158-3.939
			c0-2.088-1.591-3.105-5.871-3.992l-4.932-0.966c-6.94-1.331-10.515-5.088-10.515-10.803c0-7.306,6.262-12.002,14.977-12.002
			c9.419,0,14.977,4.566,15.082,11.637h-8.819c-0.183-2.739-2.714-4.383-6.158-4.383c-3.34,0-5.558,1.513-5.558,3.81
			c0,2.035,1.67,3.157,5.61,3.966l4.879,0.913c7.437,1.436,10.776,4.801,10.776,10.75c0,7.488-6.184,12.264-15.89,12.264
			c-9.602,0-15.525-4.253-15.629-11.559L171.156,134.143L171.156,134.143z"/>
		<path fill="#FFFFFF" d="M196.572,130.829c0-9.289,5.714-14.872,14.533-14.872c8.871,0,14.533,5.558,14.533,14.872
			c0,9.498-5.584,14.899-14.533,14.899C202.155,145.728,196.572,140.3,196.572,130.829z M216.271,130.855
			c0-5.114-2.009-8.115-5.166-8.115c-3.131,0-5.14,3.001-5.14,8.115c0,5.192,1.957,8.089,5.14,8.089
			C214.262,138.944,216.271,136.047,216.271,130.855z"/>
		<path fill="#FFFFFF" d="M247.661,127.854c-0.312-2.948-2.087-4.853-4.774-4.853c-3.262,0-5.167,2.817-5.167,7.827
			c0,5.062,1.905,7.88,5.167,7.88c2.713,0,4.462-1.748,4.801-4.696h8.48c-0.235,7.228-5.376,11.716-13.386,11.716
			c-8.897,0-14.429-5.584-14.429-14.899c0-9.21,5.531-14.872,14.376-14.872c8.011,0,13.203,4.774,13.438,11.897L247.661,127.854
			L247.661,127.854z"/>
		<path fill="#FFFFFF" d="M259.508,109.798c0-2.557,2.061-4.514,4.748-4.514s4.724,1.957,4.724,4.514s-2.036,4.54-4.724,4.54
			S259.508,112.355,259.508,109.798z M259.638,116.634h9.237v28.415h-9.237V116.634z"/>
		<path fill="#FFFFFF" d="M300.526,136.074c-0.888,5.87-6.106,9.654-13.542,9.654c-9.055,0-14.456-5.558-14.456-14.742
			s5.454-15.029,14.143-15.029c8.559,0,14.012,5.609,14.012,14.298v2.609h-19.178v0.574c0,3.393,2.27,5.74,5.609,5.74
			c2.479,0,4.41-1.174,5.062-3.104H300.526z M281.634,127.593h10.333c-0.156-3.026-2.218-5.062-5.141-5.062
			C283.983,122.532,281.87,124.645,281.634,127.593z"/>
		<path fill="#FFFFFF" d="M315.842,110.268v6.366h5.114v6.811h-5.114v11.924c0,1.957,1.044,2.949,3.262,2.949
			c0.73,0,1.278-0.026,1.826-0.131v6.575c-0.887,0.183-2.243,0.339-4.044,0.339c-7.384,0-10.307-2.27-10.307-7.854v-13.803h-3.861
			v-6.811h3.861v-6.366L315.842,110.268L315.842,110.268z"/>
		<path fill="#FFFFFF" d="M325.68,155.486v-6.992c0.131,0.026,1.853,0.052,2.01,0.052c2.896,0,4.278-0.73,4.514-2.452
			c0-0.157,0.104-0.861,0.052-1.044l-9.575-28.415h10.202l5.14,21.475h0.157l5.113-21.475h9.759l-9.08,28.337
			c-2.427,7.619-6.602,10.541-14.925,10.541C328.916,155.512,325.811,155.512,325.68,155.486z"/>
	</g>
	<g>
		<g>
			<g>
				<path fill="#FFFFFF" d="M103.732,105.525c0,3.866-3.134,7-7,7s-7-3.134-7-7s3.134-7,7-7S103.732,101.659,103.732,105.525"/>
				<g>
					<path fill="#FFFFFF" d="M1.499,90.824h56.16l29.073,14.69c0,0.003-0.001,0.007-0.001,0.011c0,5.514,4.486,10,10,10
						s10-4.486,10-10s-4.486-10-10-10c-2.219,0-4.265,0.735-5.926,1.963l-30.044-15.18c-0.63-0.318-1.325-0.484-2.03-0.484H1.499
						V90.824z"/>
					<path fill="#FFFFFF" d="M81.732,55.525c-3.973,0-7.403,2.335-9.014,5.7H1.5v9h71.41c1.685,3.15,5.006,5.3,8.821,5.3
						c5.514,0,10-4.486,10-10C91.732,60.011,87.246,55.525,81.732,55.525z"/>
				</g>
			</g>
		</g>
	</g>
	<path fill="#FFFFFF" d="M63.732,110.525c-2.05,0-3.958,0.622-5.546,1.685l-16.236-9.2c-0.677-0.384-1.441-0.585-2.219-0.585H19.008
		v9h19.537l15.211,8.619c-0.008,0.16-0.024,0.318-0.024,0.48c0,5.514,4.486,10,10,10s10-4.486,10-10
		C73.732,115.011,69.246,110.525,63.732,110.525z"/>
	<path fill="#FFFFFF" d="M19.008,40.624v9h24.723c1.042,0,2.051-0.361,2.856-1.022l12.104-9.938
		c1.237,0.549,2.602,0.861,4.041,0.861c5.514,0,10-4.486,10-10s-4.486-10-10-10s-10,4.486-10,10c0,0.751,0.09,1.48,0.248,2.185
		l-10.858,8.915L19.008,40.624L19.008,40.624z"/>
	<path fill="#FFFFFF" d="M124.288,78.842c-2.071-2.965-4.561-5.483-6.97-7.917c-0.136-0.138-0.272-0.276-0.406-0.411
		c10.93-14.053,12.814-29.689,5.422-45.398C114.599,8.681,100.408,0,81.285,0h-0.254C63.376,0.071,44.859,0.054,26.953,0.038
		C19.395,0.031,11.887,0.024,4.5,0.024c-1.194,0-2.338,0.474-3.183,1.319C0.474,2.187,0,3.331,0,4.524v40.6
		c0,2.485,2.014,4.5,4.5,4.5H9v-9v-6.999v-24.6c5.925,0.002,11.919,0.008,17.945,0.013C44.864,9.055,63.391,9.07,81.067,9h0.219
		c15.603,0,26.674,6.711,32.904,19.948c6.273,13.329,4.241,26.135-6.043,38.066c-0.356,0.414-0.619,0.804-0.793,1.062l-0.067,0.1
		c-1.246,1.734-1.101,4.105,0.346,5.675c1.087,1.179,2.205,2.31,3.286,3.403c2.243,2.267,4.36,4.407,5.992,6.742
		c8.4,12.026,9.535,24.723,3.376,37.74c-6.391,13.505-17.011,20.859-30.712,21.266c-20.356,0.604-39.151,0.483-59.053,0.354
		c-6.981-0.045-14.16-0.092-21.522-0.106v-40.826H4.5c-2.486,0-4.5,2.015-4.5,4.5v40.821c0,1.194,0.474,2.338,1.317,3.182
		c0.845,0.845,1.989,1.318,3.183,1.318c8.915,0,17.582,0.056,25.964,0.111c8.242,0.052,16.292,0.104,24.35,0.104
		c11.48,0,22.972-0.105,35.028-0.463c17.059-0.507,30.76-9.887,38.58-26.412C135.957,109.663,134.527,93.5,124.288,78.842z"/>
</g>
</svg>
